<svg id="Layer_1" data-name="Layer 1" xmlns="http://www.w3.org/2000/svg" viewBox="0 0 379.99 56.41"><title>wide blacksvg</title><path d="M143.07,6.09a6.59,6.59,0,0,0-5.17,2.1A8.3,8.3,0,0,0,136,13.94a8.62,8.62,0,0,0,1.78,5.8,6.34,6.34,0,0,0,5.08,2.07,13.77,13.77,0,0,0,4-.56v1.07a13.17,13.17,0,0,1-4.32.61,7.35,7.35,0,0,1-5.79-2.38,9.64,9.64,0,0,1-2.11-6.64,10.41,10.41,0,0,1,1-4.69,7.3,7.3,0,0,1,2.9-3.13A8.56,8.56,0,0,1,143,5a10.56,10.56,0,0,1,4.57,1L147.08,7A8.85,8.85,0,0,0,143.07,6.09Z"/><path d="M164.5,13.94a9.75,9.75,0,0,1-2.08,6.57,8,8,0,0,1-11.45,0,9.79,9.79,0,0,1-2.08-6.6A9.62,9.62,0,0,1,151,7.36,7.21,7.21,0,0,1,156.71,5a7.14,7.14,0,0,1,5.72,2.41A9.76,9.76,0,0,1,164.5,13.94Zm-14.28,0a8.94,8.94,0,0,0,1.67,5.79,6.69,6.69,0,0,0,9.61,0,9,9,0,0,0,1.67-5.81,8.85,8.85,0,0,0-1.67-5.78,6.71,6.71,0,0,0-9.6,0A8.78,8.78,0,0,0,150.22,13.94Z"/><path d="M175.2,22.69,168.7,6.58h-.1q.1,1.48.1,3V22.69h-1.17V5.24h1.89l6.18,15.35h.07l6.18-15.35h1.84V22.69h-1.23V9.47q0-1.38.14-2.86h-.1L176,22.69Z"/><path d="M198.15,10.26a4.64,4.64,0,0,1-1.72,3.88,7.73,7.73,0,0,1-4.87,1.35h-2.7v7.21h-1.22V5.24h4.27Q198.15,5.24,198.15,10.26Zm-9.29,4.18h2.4a7.27,7.27,0,0,0,4.26-1,3.67,3.67,0,0,0,1.31-3.16,3.56,3.56,0,0,0-1.24-3,6.21,6.21,0,0,0-3.84-1h-2.89Z"/><path d="M213.8,5.24V16.54a6.26,6.26,0,0,1-1.74,4.7,6.68,6.68,0,0,1-4.86,1.69,6.4,6.4,0,0,1-4.73-1.7,6.41,6.41,0,0,1-1.7-4.74V5.24H202V16.54a5.31,5.31,0,0,0,1.4,3.92,5.33,5.33,0,0,0,4,1.4,5.21,5.21,0,0,0,3.87-1.38,5.18,5.18,0,0,0,1.37-3.83V5.24Z"/><path d="M222.12,22.69h-1.23V6.39h-5.67V5.24h12.57V6.39h-5.67Z"/><path d="M238.94,22.69H229.4V5.24h9.54V6.37h-8.32V13h7.85v1.12h-7.85v7.48h8.32Z"/><path d="M243.13,15.09v7.6h-1.22V5.24h4.15a7.83,7.83,0,0,1,4.8,1.2,4.28,4.28,0,0,1,1.55,3.61,4.72,4.72,0,0,1-.93,3,5.14,5.14,0,0,1-2.81,1.73l4.74,7.95H252l-4.5-7.6Zm0-1.05h3.33a5.31,5.31,0,0,0,3.43-1,3.52,3.52,0,0,0,1.22-2.91,3.41,3.41,0,0,0-1.19-2.9A6.52,6.52,0,0,0,246,6.34h-2.89Z"/><path d="M271.14,5.24h1.32l-6.53,17.45h-1.07L258.36,5.24h1.3l4.39,11.88q1,2.69,1.35,4,.24-.9.94-2.78Z"/><path d="M274,22.69V5.24h1.22V22.69Z"/><path d="M288.78,18.19a4.19,4.19,0,0,1-1.61,3.46,6.66,6.66,0,0,1-4.27,1.28,13.36,13.36,0,0,1-4.91-.7V21a12.41,12.41,0,0,0,4.81.8,5.39,5.39,0,0,0,3.41-1,3.12,3.12,0,0,0,1.26-2.58,3,3,0,0,0-.42-1.64,3.81,3.81,0,0,0-1.36-1.19,16.77,16.77,0,0,0-2.77-1.16,9.48,9.48,0,0,1-3.69-2,4,4,0,0,1-1-2.85,3.91,3.91,0,0,1,1.53-3.19A6.09,6.09,0,0,1,283.69,5a11.55,11.55,0,0,1,4.62.93L287.87,7a10.78,10.78,0,0,0-4.15-.91,4.87,4.87,0,0,0-3.08.9,2.92,2.92,0,0,0-1.15,2.44,3.19,3.19,0,0,0,.35,1.59A3.24,3.24,0,0,0,281,12.1a15.73,15.73,0,0,0,2.75,1.19,14.83,14.83,0,0,1,3.07,1.37,4.39,4.39,0,0,1,1.5,1.5A4.11,4.11,0,0,1,288.78,18.19Z"/><path d="M291.49,22.69V5.24h1.22V22.69Z"/><path d="M311.34,13.94a9.75,9.75,0,0,1-2.08,6.57,8,8,0,0,1-11.45,0,9.79,9.79,0,0,1-2.08-6.6,9.62,9.62,0,0,1,2.09-6.56A7.21,7.21,0,0,1,303.56,5a7.14,7.14,0,0,1,5.72,2.41A9.76,9.76,0,0,1,311.34,13.94Zm-14.28,0a8.94,8.94,0,0,0,1.67,5.79,6.69,6.69,0,0,0,9.61,0A9,9,0,0,0,310,13.94a8.85,8.85,0,0,0-1.67-5.78,6.71,6.71,0,0,0-9.6,0A8.78,8.78,0,0,0,297.06,13.94Z"/><path d="M327.06,22.69h-1.23L315.49,7.2h-.1q.14,2.77.14,4.18V22.69h-1.17V5.24h1.22l10.33,15.47H326q-.11-2.15-.11-4.08V5.24h1.18Z"/><path d="M344.8,16.54h-7.09l-2.44,6.16h-1.35l7-17.52h.78l6.88,17.52h-1.37Zm-6.65-1.1h6.24L342,9.15q-.3-.74-.72-2.05a19.16,19.16,0,0,1-.7,2.08Z"/><path d="M362.78,22.69h-1.23L351.21,7.2h-.1q.14,2.77.14,4.18V22.69h-1.17V5.24h1.22l10.33,15.47h.07q-.11-2.15-.11-4.08V5.24h1.18Z"/><path d="M380,13.8q0,4.39-2.3,6.64t-6.77,2.25h-4.18V5.24h4.71q4.18,0,6.36,2.18T380,13.8Zm-1.32,0a7.63,7.63,0,0,0-1.9-5.64,7.61,7.61,0,0,0-5.59-1.89H368v15.3h2.89Q378.67,21.62,378.67,13.85Z"/><path d="M135.62,52V34.58h1.22V52Z"/><path d="M153.49,52h-1.23L141.92,36.54h-.1q.14,2.77.14,4.18V52H140.8V34.58H142L152.34,50h.07q-.11-2.15-.11-4.08V34.58h1.18Z"/><path d="M162,52h-1.23V35.72H155.1V34.58h12.57v1.15H162Z"/><path d="M178.82,52h-9.54V34.58h9.54V35.7H170.5v6.6h7.85v1.12H170.5v7.48h8.32Z"/><path d="M181.79,52V34.58H183V50.88h8.32V52Z"/><path d="M193.36,52V34.58h1.22V50.88h8.32V52Z"/><path d="M204.93,52V34.58h1.22V52Z"/><path d="M217,43.23h6.43v8a14.44,14.44,0,0,1-5.69,1.07,8.29,8.29,0,0,1-6.33-2.33,9.25,9.25,0,0,1-2.2-6.61,9.92,9.92,0,0,1,1.09-4.72,7.65,7.65,0,0,1,3.13-3.18,9.52,9.52,0,0,1,4.67-1.12,12,12,0,0,1,5.12,1.05l-.49,1.1A11.07,11.07,0,0,0,218,35.4a7.19,7.19,0,0,0-5.47,2.13,8,8,0,0,0-2,5.75q0,3.94,1.92,5.93a7.5,7.5,0,0,0,5.65,2,10.94,10.94,0,0,0,4.09-.68V44.38H217Z"/><path d="M236.35,52h-9.54V34.58h9.54V35.7H228v6.6h7.85v1.12H228v7.48h8.32Z"/><path d="M252,52h-1.23L240.44,36.54h-.1q.14,2.77.14,4.18V52h-1.17V34.58h1.22L250.86,50h.07q-.11-2.15-.11-4.08V34.58H252Z"/><path d="M263.42,35.43a6.59,6.59,0,0,0-5.17,2.1,8.3,8.3,0,0,0-1.89,5.75,8.62,8.62,0,0,0,1.78,5.8,6.34,6.34,0,0,0,5.08,2.07,13.77,13.77,0,0,0,4-.56v1.07a13.17,13.17,0,0,1-4.32.61,7.35,7.35,0,0,1-5.79-2.38A9.64,9.64,0,0,1,255,43.26a10.41,10.41,0,0,1,1-4.69,7.3,7.3,0,0,1,2.9-3.13,8.56,8.56,0,0,1,4.4-1.1,10.56,10.56,0,0,1,4.57,1l-.49,1.1A8.85,8.85,0,0,0,263.42,35.43Z"/><path d="M279.72,52h-9.54V34.58h9.54V35.7H271.4v6.6h7.85v1.12H271.4v7.48h8.32Z"/><path d="M294.93,43.23h6.43v8a14.44,14.44,0,0,1-5.69,1.07,8.29,8.29,0,0,1-6.33-2.33,9.25,9.25,0,0,1-2.2-6.61,9.92,9.92,0,0,1,1.09-4.72,7.65,7.65,0,0,1,3.13-3.18A9.52,9.52,0,0,1,296,34.3a12,12,0,0,1,5.12,1.05l-.49,1.1A11.07,11.07,0,0,0,296,35.4a7.19,7.19,0,0,0-5.47,2.13,8,8,0,0,0-2,5.75q0,3.94,1.92,5.93a7.5,7.5,0,0,0,5.65,2,10.94,10.94,0,0,0,4.09-.68V44.38h-5.19Z"/><path d="M306,44.43V52h-1.22V34.58h4.15a7.83,7.83,0,0,1,4.8,1.2,4.28,4.28,0,0,1,1.55,3.61,4.72,4.72,0,0,1-.93,3,5.14,5.14,0,0,1-2.81,1.73L316.27,52h-1.46l-4.5-7.6Zm0-1.05h3.33a5.31,5.31,0,0,0,3.43-1A3.52,3.52,0,0,0,314,39.48a3.41,3.41,0,0,0-1.19-2.9,6.52,6.52,0,0,0-3.89-.91H306Z"/><path d="M333,43.28a9.75,9.75,0,0,1-2.08,6.57,8,8,0,0,1-11.45,0,9.79,9.79,0,0,1-2.08-6.6,9.62,9.62,0,0,1,2.09-6.56,7.21,7.21,0,0,1,5.72-2.39,7.14,7.14,0,0,1,5.72,2.41A9.76,9.76,0,0,1,333,43.28Zm-14.28,0a8.94,8.94,0,0,0,1.67,5.79,6.69,6.69,0,0,0,9.61,0,9,9,0,0,0,1.67-5.81A8.85,8.85,0,0,0,330,37.5a6.71,6.71,0,0,0-9.6,0A8.78,8.78,0,0,0,318.71,43.28Z"/><path d="M348.85,34.58V45.87a6.26,6.26,0,0,1-1.74,4.7,6.68,6.68,0,0,1-4.86,1.69,5.9,5.9,0,0,1-6.43-6.45V34.58H337V45.87a4.87,4.87,0,0,0,5.35,5.32,4.78,4.78,0,0,0,5.24-5.2V34.58Z"/><path d="M363.12,39.59a4.64,4.64,0,0,1-1.72,3.88,7.73,7.73,0,0,1-4.87,1.35h-2.7V52h-1.22V34.58h4.27Q363.12,34.58,363.12,39.59Zm-9.29,4.18h2.4a7.27,7.27,0,0,0,4.26-1,3.67,3.67,0,0,0,1.31-3.16,3.56,3.56,0,0,0-1.24-3,6.21,6.21,0,0,0-3.84-1h-2.89Z"/><path d="M104.82,0A19.26,19.26,0,0,0,88.25,9.52h0L69.11,42.62,52.58,14h0A28.21,28.21,0,1,0,28.21,56.41H41.53a4.58,4.58,0,1,0,0-9.17H28.21A19,19,0,1,1,44.65,18.61L65.14,54.07a4.59,4.59,0,0,0,7.94,0L96.16,14.15h0a10,10,0,0,1,18.67,5V51.78a4.58,4.58,0,1,0,9.17,0V19.18A19.21,19.21,0,0,0,104.82,0Z"/></svg>